REM DIRINDEX 1\2,1\3,1\5,1\4\6,1\4\7
REM DIRNAME folder01,folder02,folder03,folder04,folder05,folder06,folder07
TITLE ""
FILE "Disk2Track12.mp3" MP3
  TRACK 01 AUDIO
    TITLE "2:cjc065_0636"
    INDEX 01 00:00:00
  TRACK 02 AUDIO
    TITLE "2:cjc065_0637"
    INDEX 01 00:07:56
  TRACK 03 AUDIO
    TITLE "2:cjc065_0638"
    INDEX 01 00:15:38
  TRACK 04 AUDIO
    TITLE "2:cjc065_0639"
    INDEX 01 00:29:25
  TRACK 05 AUDIO
    TITLE "0:"
    INDEX 01 00:37:14
